<svg id="Layer_1" data-name="Layer 1" xmlns="http://www.w3.org/2000/svg" viewBox="0 0 643.86 283.95"><defs><style>.cls-1{fill:#dddddd;}</style></defs><title>logo</title><g id="Layer_1-2" data-name="Layer 1-2"><path class="cls-1" d="M311.14,147.15a47,47,0,0,0,21.08-4.59,33.3,33.3,0,0,0,14.53-14q5.25-9.37,5.25-23V48H332v57.57q0,11.55-5.29,17.31t-15.14,5.77q-10,0-15.28-5.77T291,105.57V48H271v57.57q0,20.45,10.93,31T311.14,147.15Z" transform="translate(0 0)"/><path class="cls-1" d="M424.71,69.37Q430,75.13,430,86.63V144h20V86.63q0-13.59-5.25-22.94a33.31,33.31,0,0,0-14.53-13.93,47.24,47.24,0,0,0-21.08-4.57q-18.27,0-29.21,10.53T369,86.63V144h20V86.63q0-11.5,5.29-17.26t15.28-5.75Q419.42,63.62,424.71,69.37Z" transform="translate(0 0)"/><path class="cls-1" d="M595.62,147.44q20.08,0,34.16-14.74a50.49,50.49,0,0,0,8.93-12.7H617.19a28.4,28.4,0,0,1-21.55,9.51,29.74,29.74,0,0,1-19.83-7.33A30.19,30.19,0,0,1,565.5,105h77.78a59.21,59.21,0,0,0,.58-8.31q0-21.47-14.27-36.4T595.5,45.35a46.52,46.52,0,0,0-24.44,6.84,48.91,48.91,0,0,0-17.83,18.54,52.05,52.05,0,0,0-6.48,25.63,51.26,51.26,0,0,0,13.92,35.94Q574.59,147.43,595.62,147.44Zm-22.09-75a29.75,29.75,0,0,1,42.05-1.27c.52.48,1,1,1.5,1.51,3.52,3.77,6,9.58,7.44,14.35H566.13c1.41-5,3.87-10.87,7.4-14.62Z" transform="translate(0 0)"/><path class="cls-1" d="M195,100.1,230.31,144h23.14L213,95.18,253.45,48h-23L195,91.09V0H0V192H195ZM176,173H20V20H176Z" transform="translate(0 0)"/><path class="cls-1" d="M246.37,238.4A123.69,123.69,0,0,0,233,233a91.92,91.92,0,0,1-9.38-3.51,17.07,17.07,0,0,1-5.69-4.05,9,9,0,0,1-2.24-6.24q0-4.71,2.91-7.2a11.3,11.3,0,0,1,7.62-2.48q5.44,0,8.59,3a12.88,12.88,0,0,1,3.88,7.56h18.39a24.68,24.68,0,0,0-9.14-17.43q-8-6.53-21.6-6.53-13.07,0-21,6.35t-7.93,17.37q0,8,3.57,13a24,24,0,0,0,8.65,7.56,94.64,94.64,0,0,0,13.07,5.26q6.18,2.07,9.68,3.64a16.93,16.93,0,0,1,5.81,4.17,9.59,9.59,0,0,1,2.3,6.6,9.94,9.94,0,0,1-2.84,7.32c-1.9,1.89-4.62,2.83-8.17,2.84a13.07,13.07,0,0,1-9.5-3.45,13.86,13.86,0,0,1-4.18-8.65H197.66a25.75,25.75,0,0,0,4.9,13.55,27.42,27.42,0,0,0,11.44,8.9,40.39,40.39,0,0,0,16.21,3.08,33.76,33.76,0,0,0,15.62-3.32,23.52,23.52,0,0,0,9.68-8.84,23.15,23.15,0,0,0,3.26-12q0-8.22-3.63-13.31A23.41,23.41,0,0,0,246.37,238.4Z" transform="translate(0 0)"/><path class="cls-1" d="M293.92,266q-1.92-2-1.92-6.95V230h15V216H292V199H275v17h-9v14h9v29.24q0,12.79,5.79,18.28T297.44,283H307V268h-6.6Q295.84,268,293.92,266Z" transform="translate(0 0)"/><path class="cls-1" d="M448,229.61a22.72,22.72,0,0,0-8.68-10.83,25.59,25.59,0,0,0-14.51-4,28.8,28.8,0,0,0-15.3,4.14,27.83,27.83,0,0,0-10.63,12,46.37,46.37,0,0,0,0,36.85,27.89,27.89,0,0,0,10.63,12,28.82,28.82,0,0,0,15.3,4.13,25.28,25.28,0,0,0,14.51-4.07A23,23,0,0,0,448,268.89V283h17V193H448Zm-5.09,34.68A17.09,17.09,0,0,1,430,269.62q-8.09,0-13-5.22T412.06,250q0-9.19,4.91-14.47t13-5.28a17.14,17.14,0,0,1,12.94,5.34Q448,240.92,448,250T442.91,264.29Z" transform="translate(0 0)"/><rect class="cls-1" x="481" y="216" width="17" height="67"/><path class="cls-1" d="M562.13,219.3a39.74,39.74,0,0,0-35.23,0,30.08,30.08,0,0,0-12.29,11.92,39.7,39.7,0,0,0,0,36.63,30.58,30.58,0,0,0,12.29,11.92,39.23,39.23,0,0,0,35.23,0,30.58,30.58,0,0,0,12.29-11.92,39.7,39.7,0,0,0,0-36.63A30.14,30.14,0,0,0,562.13,219.3Zm-5.51,44.85a17.07,17.07,0,0,1-24.15.06l-.06-.06q-5-5-5-14.59t5-14.58a17.07,17.07,0,0,1,24.15-.06l.06.06q5,5,5,14.58T556.62,264.15Z" transform="translate(0 0)"/><path class="cls-1" d="M631.78,247.78a87,87,0,0,0-12.16-3.5c-3.55-.85-6.27-1.61-8.18-2.28a13.68,13.68,0,0,1-4.74-2.61,5.55,5.55,0,0,1-1.9-4.38,6.8,6.8,0,0,1,2.38-5.46,10,10,0,0,1,6.64-2,12.86,12.86,0,0,1,8.65,2.84,13.12,13.12,0,0,1,4.27,7.59h15.65a26.15,26.15,0,0,0-9-16.12q-7.23-6-19.21-6-11.5,0-18,5.33A17.11,17.11,0,0,0,589.63,235q0,6.63,3.26,10.43a18.88,18.88,0,0,0,7.82,5.51,93,93,0,0,0,11.92,3.38c3.56.87,6.3,1.62,8.24,2.25a13.08,13.08,0,0,1,4.86,2.73,6,6,0,0,1,2,4.62,7,7,0,0,1-2.26,5.4q-2.25,2.07-6.52,2.07a15.51,15.51,0,0,1-9.6-2.78A10.84,10.84,0,0,1,605,261H589q1.65,10.67,9.36,16.42t20.51,5.75q11.14,0,17.73-5.22a16.58,16.58,0,0,0,6.58-13.63q0-6.76-3.38-10.73A20.17,20.17,0,0,0,631.78,247.78Z" transform="translate(0 0)"/><path class="cls-1" d="M365,248.43q0,9.38-1.17,12.23a11.92,11.92,0,0,1-4.86,5.81,15.14,15.14,0,0,1-8,2,14.6,14.6,0,0,1-7.9-2,11.52,11.52,0,0,1-4.65-5.63q-1.43-3.64-1.42-13V216H318v27.56q0,15.88,2.18,21.91A25.9,25.9,0,0,0,330.75,279q7.51,4.88,19.68,4.87,11.22,0,18.5-4.17a26.69,26.69,0,0,0,11-12Q383,261.31,383,244V216H365Z" transform="translate(0 0)"/><rect class="cls-1" x="481" y="194" width="17" height="17"/><path class="cls-1" d="M471,47h61.34l-36.1,79H530v18H468l36-78H471Z" transform="translate(0 0)"/></g></svg>